# xmcd
#
# Track frame offsets:
#	150
#	13164
#	31616
#	45231
#	60445
#	79822
#	101387
#	117164
#	129466
#	141680
#	153157
#	166259
#	181961
#	197901
#
# Disc length: 2889 seconds
#
# Revision: 1
# Processed by: cddbd v1.4PL0 Copyright (c) Steve Scherf et al.
# Submitted via: EasyCDDAExtractor 5.0.6
#
DISCID=ad0b470e
DTITLE=Rock in Music LTD. - Romance on Violin
DYEAR=1999
DGENRE=Rhythmic Soul
TTITLE0=If
TTITLE1=First for May
TTITLE2=Song from a secret garden
TTITLE3=Make it with you
TTITLE4=Kiss me goodbye
TTITLE5=You make me feel brand new
TTITLE6=Stay awhile
TTITLE7=Love's not for me
TTITLE8=Interlude
TTITLE9=Memory
TTITLE10=Are you lonesome tonight
TTITLE11=What a wonderful world
TTITLE12=As time goes by
TTITLE13=Somewhere in time
EXTD=
EXTT0=
EXTT1=
EXTT2=
EXTT3=
EXTT4=
EXTT5=
EXTT6=
EXTT7=
EXTT8=
EXTT9=
EXTT10=
EXTT11=
EXTT12=
EXTT13=
PLAYORDER=
